<svg id="Layer_1" enable-background="new 0 0 512.017 512.017" height="512" viewBox="0 0 512.017 512.017" width="512" xmlns="http://www.w3.org/2000/svg"><g><path d="m344.008 479.989c-33.324 0-65.52-10.877-93.106-31.455-7.083-5.284-63.909-224.181-60.669-232.402 26.849-68.124 87.209-112.143 153.776-112.143 95.866 0 168 87.55 168 188-.001 100.624-72.283 188-168.001 188z" fill="#f79caf"/><path d="m272.008 359.989c-8.837 0-231.164 0-240 0s-16-7.164-16-16c0-83.813 61.009-152 136-152s136 68.187 136 152c0 8.837-7.163 16-16 16z" fill="#e2e0e0"/><path d="m288.008 343.989c0 8.84-7.16 16-16 16h-32c8.84 0 16-7.16 16-16 0-77.76-52.52-142.08-120-150.96 83.045-10.759 152 62.393 152 150.96z" fill="#cecccc"/><path d="m512.008 291.989c0 107.556-82.23 197.967-183.92 187.16 87.62-9.13 151.92-92.26 151.92-187.16 0-94.72-64.14-177.97-151.84-187.16 101.067-10.818 183.84 79.094 183.84 187.16z" fill="#e3889b"/><path d="m304.008 343.989c0 92.64-68.19 168-152 168s-152-75.36-152-168c0-8.84 7.16-16 16-16h272c8.84 0 16 7.16 16 16z" fill="#f79caf"/><g fill="#e3889b"><path d="m304.008 343.989c0 99.801-78.59 177.607-168 167.07 76.32-8.86 136-80.4 136-167.07 0-8.84-7.16-16-16-16h32c8.84 0 16 7.16 16 16z"/><path d="m328.008 279.989c-8.837 0-16-7.164-16-16v-8c0-8.836 7.163-16 16-16s16 7.164 16 16v8c0 8.837-7.163 16-16 16z"/><path d="m408.008 279.989c-8.837 0-16-7.164-16-16v-8c0-8.836 7.163-16 16-16s16 7.164 16 16v8c0 8.837-7.163 16-16 16z"/><path d="m408.008 407.989c-8.837 0-16-7.164-16-16v-8c0-8.836 7.163-16 16-16s16 7.164 16 16v8c0 8.837-7.163 16-16 16z"/><path d="m328.008 407.989c-8.837 0-16-7.164-16-16v-8c0-8.836 7.163-16 16-16s16 7.164 16 16v8c0 8.837-7.163 16-16 16z"/><path d="m368.008 215.989c-8.837 0-16-7.164-16-16v-8c0-8.836 7.163-16 16-16s16 7.164 16 16v8c0 8.837-7.163 16-16 16z"/><path d="m288.008 215.989c-8.837 0-16-7.164-16-16v-8c0-8.836 7.163-16 16-16s16 7.164 16 16v8c0 8.837-7.163 16-16 16z"/><path d="m368.008 343.989c-8.837 0-16-7.164-16-16v-8c0-8.836 7.163-16 16-16s16 7.164 16 16v8c0 8.837-7.163 16-16 16z"/><path d="m448.008 343.989c-8.837 0-16-7.164-16-16v-8c0-8.836 7.163-16 16-16s16 7.164 16 16v8c0 8.837-7.163 16-16 16z"/><path d="m96.008 415.989c-8.836 0-16-7.164-16-16v-8c0-8.836 7.164-16 16-16s16 7.164 16 16v8c0 8.837-7.163 16-16 16z"/><path d="m152.008 463.989c-8.836 0-16-7.164-16-16v-8c0-8.836 7.164-16 16-16s16 7.164 16 16v8c0 8.837-7.163 16-16 16z"/><path d="m208.008 415.989c-8.836 0-16-7.164-16-16v-8c0-8.836 7.164-16 16-16s16 7.164 16 16v8c0 8.837-7.163 16-16 16z"/></g><path d="m332.502 22.994c-8.323-10.404-21.237-20.672-33.864-22.787l-.003.016c-9.956-1.649-18.627 6.054-18.627 15.766 0 7.762 5.529 14.229 12.863 15.688.601.155 8.393 2.351 16.54 13.824 8.484 11.949 18.598 35.959 18.598 82.488 0 8.836 7.163 16 16 16s16-7.164 16-16c-.001-46.855-9.255-82.18-27.507-104.995zm-39.121 8.761-.003.016c-.422-.043-.855-.158.003-.016z" fill="#b59f89"/></g></svg>